# xmcd
#
# Track frame offsets:
#	150
#	13957
#	29146
#	43473
#	60404
#	76673
#	98862
#	117085
#	136073
#
# Disc length: 2003 seconds
#
# Revision: 1
# Processed by: cddbd v1.5.2PL0 Copyright (c) Steve Scherf et al.
# Submitted via: audiograbber 1.83.01
#
DISCID=7307d109
DTITLE=Various Artist - ASK1304B
DYEAR=2013
DGENRE=KARAOKE
TTITLE0=BRETT ELDREDGE - BEAT OF THE MUSIC
TTITLE1=JOSH THOMPSON - COLD BEER WITH YOUR NAME ON IT
TTITLE2=JASON ALDEAN - DRINK ONE FOR ME
TTITLE3=JERROD NIEMANN - DRINK TO THAT ALL NIGHT
TTITLE4=JAKE OWEN - GHOST TOWN
TTITLE5=MILEY CYRUS - SOMEONE ELSE
TTITLE6=MILEY CYRUS - WE CAN'T STOP
TTITLE7=IMAGINE DRAGONS - WHO ARE WE (THE HUNGER GAMES)
TTITLE8=DUSTIN LYNCH - WILD IN YOUR SMILE
EXTD=
EXTT0=
EXTT1=
EXTT2=
EXTT3=
EXTT4=
EXTT5=
EXTT6=
EXTT7=
EXTT8=
PLAYORDER=
